<svg width="32" height="32" viewBox="0 0 32 32" fill="none" xmlns="http://www.w3.org/2000/svg">
  <defs>
    <linearGradient id="gradient" x1="0%" y1="0%" x2="100%" y2="100%">
      <stop offset="0%" style="stop-color:#0EA5E9" />
      <stop offset="50%" style="stop-color:#6366F1" />
      <stop offset="100%" style="stop-color:#A855F7" />
    </linearGradient>
    <filter id="glow" x="-50%" y="-50%" width="200%" height="200%">
      <feGaussianBlur in="SourceGraphic" stdDeviation="1.5" result="blur" />
      <feColorMatrix in="blur" type="matrix" values="
        1 0 0 0 0
        0 1 0 0 0
        0 1 0 0 0
        0 0 0 18 -7
      " result="glow" />
      <feMerge>
        <feMergeNode in="glow" />
        <feMergeNode in="SourceGraphic" />
      </feMerge>
    </filter>
  </defs>
  
  {/* 메인 오로라 웨이브 */}
  <path 
    d="M16 4C23 4 28 11 28 16C28 21 23 28 16 28C9 28 4 21 4 16C4 11 9 4 16 4Z"
    fill="url(#gradient)"
    filter="url(#glow)"
    opacity="0.8"
  />
  
  {/* 상단 웨이브 */}
  <path
    d="M16 6C22 6 26 12 26 15C26 18 22 24 16 24C10 24 6 18 6 15C6 12 10 6 16 6Z"
    fill="url(#gradient)"
    opacity="0.6"
  />
  
  {/* 중앙 빛나는 점 */}
  <circle 
    cx="16" 
    cy="16" 
    r="5"
    fill="white"
    opacity="0.9"
    filter="url(#glow)"
  />
</svg> 